# Created by Kenney (www.kenney.nl)

mtllib Crystal.mtl

v 1 2 1.5
v 1 2 -1.5
v 0 2 1.5
v 0 2 -1.5
v 0 3 -1.5
v 0 3 1.5
v 1 3 -1.5
v 1 3 1.5
v 0 2 1
v 0 2 -1
v -1 2 1
v -1 2 -1
v -1 3 -1
v -1 3 1
v 0 3 -1
v 0 3 1
v 3 1 1
v 3 1 -1
v 2 1 1
v 2 1 -1
v 2 2 -1
v 2 2 1
v 3 2 -1
v 3 2 1
v 2 1 0.5
v 2 1 -0.5
v 1 1 0.5
v 1 1 -0.5
v 1 2 -0.5
v 1 2 0.5
v 2 2 -0.5
v 2 2 0.5
v 1 0 1
v 1 0 -1
v 0 0 1
v 0 0 -1
v 1 2 -1
v 1 2 1
v 0 -1 1.5
v 0 -1 -1.5
v -1 -1 1.5
v -1 -1 -1.5
v -1 2 -1.5
v -1 2 1.5
v -1 1 1.5
v -1 1 -1.5
v -2 1 1.5
v -2 1 -1.5
v -2 2 -1.5
v -2 2 1.5
v 2 -1 1.5
v 2 -1 -1.5
v 1 -1 1.5
v 1 -1 -1.5
v 1 1 -1.5
v 1 1 1.5
v 2 1 -1.5
v 2 1 1.5
v -1 0 1
v -1 0 -1
v -2 0 1
v -2 0 -1
v -2 1 -1
v -2 1 1
v -1 1 -1
v -1 1 1
v 0 0 -1.5
v 0 0 1.5
v 1 0 -1.5
v 1 0 1.5

vn 0 -1 0
vn -1 0 0
vn 0 0 -1
vn 0 0 1
vn 1 0 0
vn 0 1 0

vt 0 NaN
vt 0 0
vt 0 NaN
vt 0 NaN
vt 0 NaN
vt 0 NaN
vt 0 NaN
vt 0 NaN
vt 0 NaN
vt 0 NaN
vt 0 NaN
vt 0 NaN
vt 0 NaN
vt 0 NaN
vt 0 NaN
vt 0 NaN
vt 0 NaN
vt 0 NaN
vt 0 NaN
vt 0 NaN
vt 0 NaN
vt 0 NaN
vt 0 NaN
vt 0 NaN
vt 0 NaN
vt 0 NaN
vt 0 NaN
vt 0 NaN
vt 0 NaN
vt 0 NaN
vt 0 NaN
vt 0 NaN
vt 0 NaN
vt 0 NaN
vt 0 NaN
vt 0 NaN
vt 0 NaN
vt 0 NaN
vt 0 NaN
vt 0 NaN
vt 0 NaN
vt 0 NaN
vt 0 NaN
vt 0 NaN
vt 0 NaN
vt 0 NaN
vt 0 NaN
vt 0 NaN
vt 0 NaN
vt 0 NaN
vt 0 NaN
vt 0 NaN
vt 0 NaN
vt 0 NaN
vt 0 NaN
vt 0 NaN
vt 0 NaN
vt 0 NaN
vt 0 NaN
vt 0 NaN
vt 0 NaN
vt 0 NaN
vt 0 NaN
vt 0 NaN
vt 0 NaN
vt 0 NaN
vt 0 NaN
vt 0 NaN
vt 0 NaN
vt 0 NaN
vt 0 NaN
vt 0 NaN
vt 0 NaN
vt 0 NaN
vt 0 NaN
vt 0 NaN
vt 0 NaN
vt 0 NaN
vt 0 NaN
vt 0 NaN
vt 0 NaN
vt 0 NaN
vt 0 NaN
vt 0 NaN
vt 0 NaN
vt 0 NaN
vt 0 NaN
vt 0 NaN
vt 0 NaN
vt 0 NaN
vt 0 NaN
vt 0 NaN
vt 0 NaN
vt 0 NaN
vt 0 NaN
vt 0 NaN
vt 0 NaN
vt 0 NaN
vt 0 NaN
vt 0 NaN
vt 0 NaN
vt 0 NaN
vt 0 NaN
vt 0 NaN
vt 0 NaN
vt 0 NaN
vt 0 NaN
vt 0 NaN
vt 0 NaN
vt 0 NaN
vt 0 NaN
vt 0 NaN
vt 0 NaN

usemtl color5

f 3/2/1 2/2/1 1/1/1
f 2/2/1 3/2/1 4/3/1
f 3/2/2 5/2/2 4/4/2
f 5/2/2 3/2/2 6/5/2
f 5/2/3 2/2/3 4/6/3
f 2/2/3 5/2/3 7/7/3
f 8/2/4 3/2/4 1/8/4
f 3/2/4 8/2/4 6/9/4
f 8/2/5 2/2/5 7/10/5
f 2/2/5 8/2/5 1/11/5
f 5/2/6 8/2/6 7/12/6
f 8/2/6 5/2/6 6/13/6
f 11/2/1 10/2/1 9/14/1
f 10/2/1 11/2/1 12/15/1
f 11/2/2 13/2/2 12/16/2
f 13/2/2 11/2/2 14/17/2
f 13/2/3 10/2/3 12/18/3
f 10/2/3 13/2/3 15/19/3
f 16/2/4 11/2/4 9/20/4
f 11/2/4 16/2/4 14/21/4
f 16/2/5 10/2/5 15/22/5
f 10/2/5 16/2/5 9/23/5
f 13/2/6 16/2/6 15/24/6
f 16/2/6 13/2/6 14/25/6
f 3/2/1 2/2/1 1/1/1
f 2/2/1 3/2/1 4/3/1
f 3/2/2 5/2/2 4/4/2
f 5/2/2 3/2/2 6/5/2
f 5/2/3 2/2/3 4/6/3
f 2/2/3 5/2/3 7/7/3
f 8/2/4 3/2/4 1/8/4
f 3/2/4 8/2/4 6/9/4
f 8/2/5 2/2/5 7/10/5
f 2/2/5 8/2/5 1/11/5
f 5/2/6 8/2/6 7/12/6
f 8/2/6 5/2/6 6/13/6
f 19/2/1 18/2/1 17/26/1
f 18/2/1 19/2/1 20/27/1
f 19/2/2 21/2/2 20/28/2
f 21/2/2 19/2/2 22/29/2
f 21/2/3 18/2/3 20/30/3
f 18/2/3 21/2/3 23/31/3
f 24/2/4 19/2/4 17/32/4
f 19/2/4 24/2/4 22/33/4
f 24/2/5 18/2/5 23/34/5
f 18/2/5 24/2/5 17/35/5
f 21/2/6 24/2/6 23/36/6
f 24/2/6 21/2/6 22/37/6
f 27/2/1 26/2/1 25/38/1
f 26/2/1 27/2/1 28/39/1
f 27/2/2 29/2/2 28/40/2
f 29/2/2 27/2/2 30/41/2
f 29/2/3 26/2/3 28/42/3
f 26/2/3 29/2/3 31/43/3
f 32/2/4 27/2/4 25/44/4
f 27/2/4 32/2/4 30/45/4
f 32/2/5 26/2/5 31/46/5
f 26/2/5 32/2/5 25/47/5
f 29/2/6 32/2/6 31/48/6
f 32/2/6 29/2/6 30/49/6
f 35/2/1 34/2/1 33/50/1
f 34/2/1 35/2/1 36/51/1
f 35/2/2 10/2/2 36/52/2
f 10/2/2 35/2/2 9/53/2
f 10/2/3 34/2/3 36/54/3
f 34/2/3 10/2/3 37/55/3
f 38/2/4 35/2/4 33/56/4
f 35/2/4 38/2/4 9/20/4
f 38/2/5 34/2/5 37/57/5
f 34/2/5 38/2/5 33/58/5
f 10/2/6 38/2/6 37/59/6
f 38/2/6 10/2/6 9/60/6
f 41/2/1 40/2/1 39/61/1
f 40/2/1 41/2/1 42/62/1
f 41/2/2 43/2/2 42/63/2
f 43/2/2 41/2/2 44/64/2
f 43/2/3 40/2/3 42/65/3
f 40/2/3 43/2/3 4/6/3
f 3/2/4 41/2/4 39/66/4
f 41/2/4 3/2/4 44/67/4
f 3/2/5 40/2/5 4/68/5
f 40/2/5 3/2/5 39/69/5
f 43/2/6 3/2/6 4/70/6
f 3/2/6 43/2/6 44/71/6
f 47/2/1 46/2/1 45/72/1
f 46/2/1 47/2/1 48/73/1
f 47/2/2 49/2/2 48/74/2
f 49/2/2 47/2/2 50/75/2
f 49/2/3 46/2/3 48/76/3
f 46/2/3 49/2/3 43/2/3
f 44/67/4 47/2/4 45/77/4
f 47/2/4 44/67/4 50/78/4
f 44/2/5 46/2/5 43/79/5
f 46/2/5 44/2/5 45/80/5
f 49/2/6 44/71/6 43/2/6
f 44/71/6 49/2/6 50/81/6
f 53/2/1 52/2/1 51/82/1
f 52/2/1 53/2/1 54/83/1
f 53/2/2 55/2/2 54/84/2
f 55/2/2 53/2/2 56/85/2
f 55/2/3 52/2/3 54/86/3
f 52/2/3 55/2/3 57/87/3
f 58/2/4 53/2/4 51/88/4
f 53/2/4 58/2/4 56/89/4
f 58/2/5 52/2/5 57/90/5
f 52/2/5 58/2/5 51/91/5
f 55/2/6 58/2/6 57/92/6
f 58/2/6 55/2/6 56/93/6
f 61/2/1 60/2/1 59/94/1
f 60/2/1 61/2/1 62/95/1
f 61/2/2 63/2/2 62/96/2
f 63/2/2 61/2/2 64/97/2
f 63/2/3 60/2/3 62/98/3
f 60/2/3 63/2/3 65/99/3
f 66/2/4 61/2/4 59/100/4
f 61/2/4 66/2/4 64/101/4
f 66/2/5 60/2/5 65/102/5
f 60/2/5 66/2/5 59/103/5
f 63/2/6 66/2/6 65/104/6
f 66/2/6 63/2/6 64/105/6
f 39/61/1 54/83/1 53/2/1
f 54/83/1 39/61/1 40/2/1
f 39/2/2 67/2/2 40/106/2
f 67/2/2 39/2/2 68/107/2
f 67/2/3 54/86/3 40/2/3
f 54/86/3 67/2/3 69/108/3
f 70/2/4 39/66/4 53/2/4
f 39/66/4 70/2/4 68/109/4
f 70/2/5 54/2/5 69/110/5
f 54/2/5 70/2/5 53/111/5
f 67/2/6 70/2/6 69/112/6
f 70/2/6 67/2/6 68/113/6
f 47/2/1 46/2/1 45/72/1
f 46/2/1 47/2/1 48/73/1
f 47/2/2 49/2/2 48/74/2
f 49/2/2 47/2/2 50/75/2
f 49/2/3 46/2/3 48/76/3
f 46/2/3 49/2/3 43/2/3
f 44/67/4 47/2/4 45/77/4
f 47/2/4 44/67/4 50/78/4
f 44/2/5 46/2/5 43/79/5
f 46/2/5 44/2/5 45/80/5
f 49/2/6 44/71/6 43/2/6
f 44/71/6 49/2/6 50/81/6

