# Created by Kenney (www.kenney.nl)

mtllib Shippy.mtl

v 8 5 0.5
v 8 5 -0.5
v 7 5 0.5
v 7 5 -0.5
v 7 9 -0.5
v 7 9 0.5
v 8 9 -0.5
v 8 9 0.5
v 2 7 0.5
v 2 7 -0.5
v -2 7 0.5
v -2 7 -0.5
v -2 9 -0.5
v -2 9 0.5
v 2 9 -0.5
v 2 9 0.5
v 6 5 0.5
v 6 5 -0.5
v 6 8 -0.5
v 6 8 0.5
v 7 8 -0.5
v 7 8 0.5
v 6 -5 0.5
v 6 -5 -0.5
v 5 -5 0.5
v 5 -5 -0.5
v 5 7 -0.5
v 5 7 0.5
v 6 7 -0.5
v 6 7 0.5
v 1 2 0.5
v 1 2 -0.5
v -1 2 0.5
v -1 2 -0.5
v -1 7 -0.5
v -1 7 0.5
v 1 7 -0.5
v 1 7 0.5
v 5 -4 0.5
v 5 -4 -0.5
v 4 -4 0.5
v 4 -4 -0.5
v 4 6 -0.5
v 4 6 0.5
v 5 6 -0.5
v 5 6 0.5
v 4 5 0.5
v 4 5 -0.5
v 2 5 0.5
v 2 5 -0.5
v 2 6 -0.5
v 2 6 0.5
v 4 3 0.5
v 4 3 -0.5
v 1 3 0.5
v 1 3 -0.5
v 1 5 -0.5
v 1 5 0.5
v -1 -2 0.5
v -1 -2 -0.5
v -2 -2 0.5
v -2 -2 -0.5
v -2 5 -0.5
v -2 5 0.5
v -1 5 -0.5
v -1 5 0.5
v -2 -1 0.5
v -2 -1 -0.5
v -3 -1 0.5
v -3 -1 -0.5
v -3 4 -0.5
v -3 4 0.5
v -2 4 -0.5
v -2 4 0.5
v -3 0 0.5
v -3 0 -0.5
v -4 0 0.5
v -4 0 -0.5
v -4 3 -0.5
v -4 3 0.5
v -3 3 -0.5
v -3 3 0.5
v 0 -3 0.5
v 0 -3 -0.5
v -1 -3 0.5
v -1 -3 -0.5
v 0 2 -0.5
v 0 2 0.5
v -4 1 0.5
v -4 1 -0.5
v -8 1 0.5
v -8 1 -0.5
v -8 2 -0.5
v -8 2 0.5
v -4 2 -0.5
v -4 2 0.5
v 1 -3 0.5
v 1 -3 -0.5
v 0 1 -0.5
v 0 1 0.5
v 1 1 -0.5
v 1 1 0.5
v 4 -3 0.5
v 4 -3 -0.5
v 1 0 -0.5
v 1 0 0.5
v 4 0 -0.5
v 4 0 0.5
v 8 -7 0.5
v 8 -7 -0.5
v 7 -7 0.5
v 7 -7 -0.5
v 7 -3 -0.5
v 7 -3 0.5
v 8 -3 -0.5
v 8 -3 0.5
v 7 -4 0.5
v 7 -4 -0.5
v 6 -4 0.5
v 6 -4 -0.5
v 6 -3 -0.5
v 6 -3 0.5
v 7 -6 0.5
v 7 -6 -0.5
v 6 -6 0.5
v 6 -6 -0.5
v 8 -1 0.5
v 8 -1 -0.5
v 7 -1 0.5
v 7 -1 -0.5
v 7 3 -0.5
v 7 3 0.5
v 8 3 -0.5
v 8 3 0.5
v 7 0 0.5
v 7 0 -0.5
v 6 0 0.5
v 6 0 -0.5
v 6 2 -0.5
v 6 2 0.5
v 7 2 -0.5
v 7 2 0.5
v 4 2 0.5
v 4 2 -0.5
v 4 1 -0.5
v 4 1 0.5

vn 0 -1 0
vn -1 0 0
vn 0 0 -1
vn 0 0 1
vn 1 0 0
vn 0 1 0

vt 0 NaN
vt 0 0
vt 0 NaN
vt 0 NaN
vt 0 NaN
vt 0 NaN
vt 0 NaN
vt 0 NaN
vt 0 NaN
vt 0 NaN
vt 0 NaN
vt 0 NaN
vt 0 NaN
vt 0 NaN
vt 0 NaN
vt 0 NaN
vt 0 NaN
vt 0 NaN
vt 0 NaN
vt 0 NaN
vt 0 NaN
vt 0 NaN
vt 0 NaN
vt 0 NaN
vt 0 NaN
vt 0 NaN
vt 0 NaN
vt 0 NaN
vt 0 NaN
vt 0 NaN
vt 0 NaN
vt 0 NaN
vt 0 NaN
vt 0 NaN
vt 0 NaN
vt 0 NaN
vt 0 NaN
vt 0 NaN
vt 0 NaN
vt 0 NaN
vt 0 NaN
vt 0 NaN
vt 0 NaN
vt 0 NaN
vt 0 NaN
vt 0 NaN
vt 0 NaN
vt 0 NaN
vt 0 NaN
vt 0 NaN
vt 0 NaN
vt 0 NaN
vt 0 NaN
vt 0 NaN
vt 0 NaN
vt 0 NaN
vt 0 NaN
vt 0 NaN
vt 0 NaN
vt 0 NaN
vt 0 NaN
vt 0 NaN
vt 0 NaN
vt 0 NaN
vt 0 NaN
vt 0 NaN
vt 0 NaN
vt 0 NaN
vt 0 NaN
vt 0 NaN
vt 0 NaN
vt 0 NaN
vt 0 NaN
vt 0 NaN
vt 0 NaN
vt 0 NaN
vt 0 NaN
vt 0 NaN
vt 0 NaN
vt 0 NaN
vt 0 NaN
vt 0 NaN
vt 0 NaN
vt 0 NaN
vt 0 NaN
vt 0 NaN
vt 0 NaN
vt 0 NaN
vt 0 NaN
vt 0 NaN
vt 0 NaN
vt 0 NaN
vt 0 NaN
vt 0 NaN
vt 0 NaN
vt 0 NaN
vt 0 NaN
vt 0 NaN
vt 0 NaN
vt 0 NaN
vt 0 NaN
vt 0 NaN
vt 0 NaN
vt 0 NaN
vt 0 NaN
vt 0 NaN
vt 0 NaN
vt 0 NaN
vt 0 NaN
vt 0 NaN
vt 0 NaN
vt 0 NaN
vt 0 NaN
vt 0 NaN
vt 0 NaN
vt 0 NaN
vt 0 NaN
vt 0 NaN
vt 0 NaN
vt 0 NaN
vt 0 NaN
vt 0 NaN
vt 0 NaN
vt 0 NaN
vt 0 NaN
vt 0 NaN
vt 0 NaN
vt 0 NaN
vt 0 NaN
vt 0 NaN
vt 0 NaN
vt 0 NaN
vt 0 NaN
vt 0 NaN
vt 0 NaN
vt 0 NaN
vt 0 NaN
vt 0 NaN
vt 0 NaN
vt 0 NaN
vt 0 NaN
vt 0 NaN
vt 0 NaN
vt 0 NaN
vt 0 NaN
vt 0 NaN
vt 0 NaN
vt 0 NaN
vt 0 NaN
vt 0 NaN
vt 0 NaN
vt 0 NaN
vt 0 NaN
vt 0 NaN
vt 0 NaN
vt 0 NaN
vt 0 NaN
vt 0 NaN
vt 0 NaN
vt 0 NaN
vt 0 NaN
vt 0 NaN
vt 0 NaN
vt 0 NaN
vt 0 NaN
vt 0 NaN
vt 0 NaN
vt 0 NaN
vt 0 NaN
vt 0 NaN
vt 0 NaN
vt 0 NaN
vt 0 NaN
vt 0 NaN
vt 0 NaN
vt 0 NaN
vt 0 NaN
vt 0 NaN
vt 0 NaN
vt 0 NaN
vt 0 NaN
vt 0 NaN
vt 0 NaN
vt 0 NaN
vt 0 NaN
vt 0 NaN
vt 0 NaN
vt 0 NaN
vt 0 NaN
vt 0 NaN
vt 0 NaN
vt 0 NaN
vt 0 NaN
vt 0 NaN
vt 0 NaN
vt 0 NaN
vt 0 NaN
vt 0 NaN
vt 0 NaN
vt 0 NaN
vt 0 NaN
vt 0 NaN
vt 0 NaN
vt 0 NaN
vt 0 NaN
vt 0 NaN
vt 0 NaN
vt 0 NaN
vt 0 NaN
vt 0 NaN
vt 0 NaN
vt 0 NaN
vt 0 NaN
vt 0 NaN
vt 0 NaN
vt 0 NaN
vt 0 NaN
vt 0 NaN
vt 0 NaN
vt 0 NaN
vt 0 NaN
vt 0 NaN
vt 0 NaN
vt 0 NaN
vt 0 NaN
vt 0 NaN
vt 0 NaN
vt 0 NaN
vt 0 NaN
vt 0 NaN
vt 0 NaN
vt 0 NaN
vt 0 NaN
vt 0 NaN
vt 0 NaN
vt 0 NaN
vt 0 NaN
vt 0 NaN
vt 0 NaN

usemtl color12

f 3/2/1 2/2/1 1/1/1
f 2/2/1 3/2/1 4/3/1
f 3/2/2 5/2/2 4/4/2
f 5/2/2 3/2/2 6/5/2
f 5/2/3 2/2/3 4/6/3
f 2/2/3 5/2/3 7/7/3
f 8/2/4 3/2/4 1/8/4
f 3/2/4 8/2/4 6/9/4
f 8/2/5 2/2/5 7/10/5
f 2/2/5 8/2/5 1/11/5
f 5/2/6 8/2/6 7/12/6
f 8/2/6 5/2/6 6/13/6
f 11/2/1 10/2/1 9/14/1
f 10/2/1 11/2/1 12/15/1
f 11/2/2 13/2/2 12/16/2
f 13/2/2 11/2/2 14/17/2
f 13/2/3 10/2/3 12/18/3
f 10/2/3 13/2/3 15/19/3
f 16/2/4 11/2/4 9/20/4
f 11/2/4 16/2/4 14/21/4
f 16/2/5 10/2/5 15/22/5
f 10/2/5 16/2/5 9/23/5
f 13/2/6 16/2/6 15/24/6
f 16/2/6 13/2/6 14/25/6
f 17/2/1 4/3/1 3/2/1
f 4/3/1 17/2/1 18/26/1
f 17/2/2 19/2/2 18/27/2
f 19/2/2 17/2/2 20/28/2
f 19/2/3 4/6/3 18/29/3
f 4/6/3 19/2/3 21/30/3
f 22/2/4 17/2/4 3/2/4
f 17/2/4 22/2/4 20/31/4
f 22/2/5 4/2/5 21/32/5
f 4/2/5 22/2/5 3/33/5
f 19/2/6 22/2/6 21/34/6
f 22/2/6 19/2/6 20/35/6
f 25/2/1 24/2/1 23/36/1
f 24/2/1 25/2/1 26/37/1
f 25/2/2 27/2/2 26/38/2
f 27/2/2 25/2/2 28/39/2
f 27/2/3 24/2/3 26/40/3
f 24/2/3 27/2/3 29/41/3
f 30/2/4 25/2/4 23/42/4
f 25/2/4 30/2/4 28/43/4
f 30/2/5 24/2/5 29/44/5
f 24/2/5 30/2/5 23/45/5
f 27/2/6 30/2/6 29/46/6
f 30/2/6 27/2/6 28/47/6
f 33/2/1 32/2/1 31/48/1
f 32/2/1 33/2/1 34/49/1
f 33/2/2 35/2/2 34/50/2
f 35/2/2 33/2/2 36/51/2
f 35/2/3 32/2/3 34/52/3
f 32/2/3 35/2/3 37/53/3
f 38/2/4 33/2/4 31/54/4
f 33/2/4 38/2/4 36/55/4
f 38/2/5 32/2/5 37/56/5
f 32/2/5 38/2/5 31/57/5
f 35/2/6 38/2/6 37/58/6
f 38/2/6 35/2/6 36/59/6
f 41/2/1 40/2/1 39/60/1
f 40/2/1 41/2/1 42/61/1
f 41/2/2 43/2/2 42/62/2
f 43/2/2 41/2/2 44/63/2
f 43/2/3 40/2/3 42/64/3
f 40/2/3 43/2/3 45/65/3
f 46/2/4 41/2/4 39/66/4
f 41/2/4 46/2/4 44/67/4
f 46/2/5 40/2/5 45/68/5
f 40/2/5 46/2/5 39/69/5
f 43/2/6 46/2/6 45/70/6
f 46/2/6 43/2/6 44/71/6
f 49/2/1 48/2/1 47/72/1
f 48/2/1 49/2/1 50/73/1
f 49/2/2 51/2/2 50/74/2
f 51/2/2 49/2/2 52/75/2
f 51/2/3 48/2/3 50/76/3
f 48/2/3 51/2/3 43/2/3
f 44/67/4 49/2/4 47/77/4
f 49/2/4 44/67/4 52/78/4
f 44/2/5 48/2/5 43/79/5
f 48/2/5 44/2/5 47/80/5
f 51/2/6 44/71/6 43/2/6
f 44/71/6 51/2/6 52/81/6
f 55/2/1 54/2/1 53/82/1
f 54/2/1 55/2/1 56/83/1
f 55/2/2 57/2/2 56/84/2
f 57/2/2 55/2/2 58/85/2
f 57/2/3 54/2/3 56/86/3
f 54/2/3 57/2/3 48/2/3
f 47/77/4 55/2/4 53/87/4
f 55/2/4 47/77/4 58/88/4
f 47/80/5 54/2/5 48/2/5
f 54/2/5 47/80/5 53/89/5
f 57/2/6 47/2/6 48/90/6
f 47/2/6 57/2/6 58/91/6
f 61/2/1 60/2/1 59/92/1
f 60/2/1 61/2/1 62/93/1
f 61/2/2 63/2/2 62/94/2
f 63/2/2 61/2/2 64/95/2
f 63/2/3 60/2/3 62/96/3
f 60/2/3 63/2/3 65/97/3
f 66/2/4 61/2/4 59/98/4
f 61/2/4 66/2/4 64/99/4
f 66/2/5 60/2/5 65/100/5
f 60/2/5 66/2/5 59/101/5
f 63/2/6 66/2/6 65/102/6
f 66/2/6 63/2/6 64/103/6
f 69/2/1 68/2/1 67/104/1
f 68/2/1 69/2/1 70/105/1
f 69/2/2 71/2/2 70/106/2
f 71/2/2 69/2/2 72/107/2
f 71/2/3 68/2/3 70/108/3
f 68/2/3 71/2/3 73/109/3
f 74/2/4 69/2/4 67/110/4
f 69/2/4 74/2/4 72/111/4
f 74/2/5 68/2/5 73/112/5
f 68/2/5 74/2/5 67/113/5
f 71/2/6 74/2/6 73/114/6
f 74/2/6 71/2/6 72/115/6
f 77/2/1 76/2/1 75/116/1
f 76/2/1 77/2/1 78/117/1
f 77/2/2 79/2/2 78/118/2
f 79/2/2 77/2/2 80/119/2
f 79/2/3 76/2/3 78/120/3
f 76/2/3 79/2/3 81/121/3
f 82/2/4 77/2/4 75/122/4
f 77/2/4 82/2/4 80/123/4
f 82/2/5 76/2/5 81/124/5
f 76/2/5 82/2/5 75/125/5
f 79/2/6 82/2/6 81/126/6
f 82/2/6 79/2/6 80/127/6
f 85/2/1 84/2/1 83/128/1
f 84/2/1 85/2/1 86/129/1
f 85/2/2 34/50/2 86/130/2
f 34/50/2 85/2/2 33/2/2
f 34/52/3 84/2/3 86/131/3
f 84/2/3 34/52/3 87/132/3
f 88/2/4 85/2/4 83/133/4
f 85/2/4 88/2/4 33/2/4
f 88/2/5 84/2/5 87/134/5
f 84/2/5 88/2/5 83/135/5
f 34/2/6 88/2/6 87/136/6
f 88/2/6 34/2/6 33/137/6
f 91/2/1 90/2/1 89/138/1
f 90/2/1 91/2/1 92/139/1
f 91/2/2 93/2/2 92/140/2
f 93/2/2 91/2/2 94/141/2
f 93/2/3 90/2/3 92/142/3
f 90/2/3 93/2/3 95/143/3
f 96/2/4 91/2/4 89/144/4
f 91/2/4 96/2/4 94/145/4
f 96/2/5 90/2/5 95/146/5
f 90/2/5 96/2/5 89/147/5
f 93/2/6 96/2/6 95/148/6
f 96/2/6 93/2/6 94/149/6
f 83/128/1 98/2/1 97/150/1
f 98/2/1 83/128/1 84/2/1
f 83/2/2 99/2/2 84/151/2
f 99/2/2 83/2/2 100/152/2
f 99/2/3 98/2/3 84/2/3
f 98/2/3 99/2/3 101/153/3
f 102/2/4 83/133/4 97/154/4
f 83/133/4 102/2/4 100/155/4
f 102/2/5 98/2/5 101/156/5
f 98/2/5 102/2/5 97/157/5
f 99/2/6 102/2/6 101/158/6
f 102/2/6 99/2/6 100/159/6
f 97/150/1 104/2/1 103/160/1
f 104/2/1 97/150/1 98/2/1
f 97/2/2 105/2/2 98/161/2
f 105/2/2 97/2/2 106/162/2
f 105/2/3 104/2/3 98/2/3
f 104/2/3 105/2/3 107/163/3
f 108/2/4 97/154/4 103/164/4
f 97/154/4 108/2/4 106/165/4
f 108/2/5 104/2/5 107/166/5
f 104/2/5 108/2/5 103/167/5
f 105/2/6 108/2/6 107/168/6
f 108/2/6 105/2/6 106/169/6
f 111/2/1 110/2/1 109/170/1
f 110/2/1 111/2/1 112/171/1
f 111/2/2 113/2/2 112/172/2
f 113/2/2 111/2/2 114/173/2
f 113/2/3 110/2/3 112/174/3
f 110/2/3 113/2/3 115/175/3
f 116/2/4 111/2/4 109/176/4
f 111/2/4 116/2/4 114/177/4
f 116/2/5 110/2/5 115/178/5
f 110/2/5 116/2/5 109/179/5
f 113/2/6 116/2/6 115/180/6
f 116/2/6 113/2/6 114/181/6
f 119/2/1 118/2/1 117/182/1
f 118/2/1 119/2/1 120/183/1
f 119/2/2 121/2/2 120/184/2
f 121/2/2 119/2/2 122/185/2
f 121/2/3 118/2/3 120/186/3
f 118/2/3 121/2/3 113/2/3
f 114/177/4 119/2/4 117/187/4
f 119/2/4 114/177/4 122/188/4
f 114/2/5 118/2/5 113/189/5
f 118/2/5 114/2/5 117/190/5
f 121/2/6 114/181/6 113/2/6
f 114/181/6 121/2/6 122/191/6
f 125/2/1 124/2/1 123/192/1
f 124/2/1 125/2/1 126/193/1
f 125/2/2 120/184/2 126/194/2
f 120/184/2 125/2/2 119/2/2
f 120/186/3 124/2/3 126/195/3
f 124/2/3 120/186/3 118/2/3
f 117/187/4 125/2/4 123/196/4
f 125/2/4 117/187/4 119/2/4
f 117/190/5 124/2/5 118/2/5
f 124/2/5 117/190/5 123/197/5
f 120/2/6 117/2/6 118/198/6
f 117/2/6 120/2/6 119/199/6
f 49/2/1 48/2/1 47/72/1
f 48/2/1 49/2/1 50/73/1
f 49/2/2 51/2/2 50/74/2
f 51/2/2 49/2/2 52/75/2
f 51/2/3 48/2/3 50/76/3
f 48/2/3 51/2/3 43/2/3
f 44/67/4 49/2/4 47/77/4
f 49/2/4 44/67/4 52/78/4
f 44/2/5 48/2/5 43/79/5
f 48/2/5 44/2/5 47/80/5
f 51/2/6 44/71/6 43/2/6
f 44/71/6 51/2/6 52/81/6
f 119/2/1 118/2/1 117/182/1
f 118/2/1 119/2/1 120/183/1
f 119/2/2 121/2/2 120/184/2
f 121/2/2 119/2/2 122/185/2
f 121/2/3 118/2/3 120/186/3
f 118/2/3 121/2/3 113/2/3
f 114/177/4 119/2/4 117/187/4
f 119/2/4 114/177/4 122/188/4
f 114/2/5 118/2/5 113/189/5
f 118/2/5 114/2/5 117/190/5
f 121/2/6 114/181/6 113/2/6
f 114/181/6 121/2/6 122/191/6

usemtl color13

f 129/2/1 128/2/1 127/200/1
f 128/2/1 129/2/1 130/201/1
f 129/2/2 131/2/2 130/202/2
f 131/2/2 129/2/2 132/203/2
f 131/2/3 128/2/3 130/204/3
f 128/2/3 131/2/3 133/205/3
f 134/2/4 129/2/4 127/206/4
f 129/2/4 134/2/4 132/207/4
f 134/2/5 128/2/5 133/208/5
f 128/2/5 134/2/5 127/209/5
f 131/2/6 134/2/6 133/210/6
f 134/2/6 131/2/6 132/211/6
f 137/2/1 136/2/1 135/212/1
f 136/2/1 137/2/1 138/213/1
f 137/2/2 139/2/2 138/214/2
f 139/2/2 137/2/2 140/215/2
f 139/2/3 136/2/3 138/216/3
f 136/2/3 139/2/3 141/217/3
f 142/2/4 137/2/4 135/218/4
f 137/2/4 142/2/4 140/219/4
f 142/2/5 136/2/5 141/220/5
f 136/2/5 142/2/5 135/221/5
f 139/2/6 142/2/6 141/222/6
f 142/2/6 139/2/6 140/223/6

usemtl color11

f 31/48/1 144/2/1 143/224/1
f 144/2/1 31/48/1 32/2/1
f 31/2/2 56/84/2 32/225/2
f 56/84/2 31/2/2 55/2/2
f 56/86/3 144/2/3 32/2/3
f 144/2/3 56/86/3 54/2/3
f 53/87/4 31/54/4 143/226/4
f 31/54/4 53/87/4 55/2/4
f 53/89/5 144/2/5 54/2/5
f 144/2/5 53/89/5 143/227/5
f 56/2/6 53/2/6 54/228/6
f 53/2/6 56/2/6 55/229/6
f 106/2/1 107/2/1 108/230/1
f 107/2/1 106/2/1 105/231/1
f 106/162/2 101/2/2 105/2/2
f 101/2/2 106/162/2 102/232/2
f 101/153/3 107/163/3 105/2/3
f 107/163/3 101/153/3 145/233/3
f 146/2/4 106/165/4 108/2/4
f 106/165/4 146/2/4 102/2/4
f 146/2/5 107/166/5 145/234/5
f 107/166/5 146/2/5 108/2/5
f 101/158/6 146/2/6 145/235/6
f 146/2/6 101/158/6 102/2/6

usemtl color5

f 100/2/1 145/2/1 146/236/1
f 145/2/1 100/2/1 99/237/1
f 100/152/2 87/2/2 99/2/2
f 87/2/2 100/152/2 88/238/2
f 87/132/3 145/233/3 99/2/3
f 145/233/3 87/132/3 144/2/3
f 143/226/4 100/155/4 146/2/4
f 100/155/4 143/226/4 88/2/4
f 143/227/5 145/234/5 144/2/5
f 145/234/5 143/227/5 146/2/5
f 87/136/6 143/2/6 144/239/6
f 143/2/6 87/136/6 88/2/6

